<svg xmlns="http://www.w3.org/2000/svg" viewBox="0 0 32 32"><title>rs_lightVolume</title><rect width="32" height="32" style="fill:#444"/><path d="M8.89,28.27H31.52a4.56,4.56,0,0,0,.35-1.74,4.79,4.79,0,0,0-3.82-4.68l-.52-.11-.09-.52a4.76,4.76,0,0,0-9.32-.33l-.18.75-.75-.18a3.34,3.34,0,0,0-.8-.11,3.42,3.42,0,0,0-3.3,2.48l-.16.56h-.59a3.46,3.46,0,0,0-3.48,3.45A2.69,2.69,0,0,0,8.89,28.27Z" style="fill:#444"/><path d="M11.8,22.88a4.88,4.88,0,0,1,5-3,6.3,6.3,0,0,1,5.92-4.14c.16,0,.31,0,.46,0,0-.16,0-.31,0-.47A11.53,11.53,0,1,0,7.65,26,5,5,0,0,1,11.8,22.88Z" style="fill:#ffcc51"/><path d="M8.89,28.27H31.52a4.56,4.56,0,0,0,.35-1.74,4.79,4.79,0,0,0-3.82-4.68l-.52-.11-.09-.52a4.76,4.76,0,0,0-9.32-.33l-.18.75-.75-.18a3.34,3.34,0,0,0-.8-.11,3.42,3.42,0,0,0-3.3,2.48l-.16.56h-.59a3.46,3.46,0,0,0-3.48,3.45A2.69,2.69,0,0,0,8.89,28.27Z" style="fill:#ccc"/></svg>