<svg xmlns="http://www.w3.org/2000/svg" viewBox="0 0 32 32"><title>rs_lightDome</title><rect width="32" height="32" style="fill:#444"/><path d="M15.14,19.44V11.85A22.68,22.68,0,0,1,4.6,8.94a15.63,15.63,0,0,0-3.18,5C2.52,16.94,8.28,19.26,15.14,19.44Z" style="fill:#ffcc51"/><path d="M.74,16.18a15.67,15.67,0,0,0-.39,3.45c0,.23,0,.46,0,.69q0,.61.1,1.21C1.37,25,7.53,27.78,15.14,28v-6.8C8.55,21,3.1,19,.74,16.18Z" style="fill:#ffcc51"/><path d="M26.09,7.68A15.57,15.57,0,0,0,16.86,4v6.09A21.6,21.6,0,0,0,26.09,7.68Z" style="fill:#ffcc51"/><path d="M15.14,4A15.57,15.57,0,0,0,5.91,7.68a21.6,21.6,0,0,0,9.23,2.43Z" style="fill:#ffcc51"/><path d="M16.86,19.44c6.86-.18,12.61-2.5,13.72-5.45a15.63,15.63,0,0,0-3.18-5,22.68,22.68,0,0,1-10.54,2.9Z" style="fill:#ffcc51"/><path d="M16.86,21.17V28c7.6-.2,13.77-2.93,14.67-6.44q.07-.6.1-1.21h0c0-.23,0-.46,0-.69a15.66,15.66,0,0,0-.39-3.45C28.9,19,23.45,21,16.86,21.17Z" style="fill:#ffcc51"/></svg>