<svg xmlns="http://www.w3.org/2000/svg" viewBox="0 0 32 32"><title>rs_lightIES</title><rect width="32" height="32" style="fill:#444"/><path d="M16,25.4a11.68,11.68,0,0,0,9.07-4.32L22.9,16.32a7.34,7.34,0,0,1-13.73,0L7,21.09A11.68,11.68,0,0,0,16,25.4Z" style="fill:#ffcc51;stroke:#444;stroke-miterlimit:10;opacity:0.5"/><path d="M16,21.05a7.35,7.35,0,0,0,6.86-4.74L16,1.49,9.17,16.32A7.35,7.35,0,0,0,16,21.05Z" style="fill:#ffcc51;stroke:#444;stroke-miterlimit:10"/><path d="M27.4,26.05l-2.3-5A11.7,11.7,0,0,1,7,21.09l-2.3,5a16.74,16.74,0,0,0,22.74,0Z" style="fill:#ffcc51;stroke:#444;stroke-miterlimit:10;opacity:0.25"/></svg>